<?xml version="1.0" encoding="UTF-8" standalone="no"?>
<!-- Created with Inkscape (http://www.inkscape.org/) -->
<svg
   xmlns:dc="http://purl.org/dc/elements/1.1/"
   xmlns:cc="http://web.resource.org/cc/"
   xmlns:rdf="http://www.w3.org/1999/02/22-rdf-syntax-ns#"
   xmlns:svg="http://www.w3.org/2000/svg"
   xmlns="http://www.w3.org/2000/svg"
   xmlns:sodipodi="http://sodipodi.sourceforge.net/DTD/sodipodi-0.dtd"
   xmlns:inkscape="http://www.inkscape.org/namespaces/inkscape"
   width="257.00006"
   height="357.00009"
   id="svg2"
   sodipodi:version="0.32"
   inkscape:version="0.44"
   version="1.0"
   sodipodi:docbase="D:\Home\Wikipedia"
   sodipodi:docname="Helium-II-creep.svg">
  <defs
     id="defs4">
    <marker
       inkscape:stockid="Arrow2Mend"
       orient="auto"
       refY="0"
       refX="0"
       id="Arrow2Mend"
       style="overflow:visible">
      <path
         id="path10136"
         style="font-size:12px;fill-rule:evenodd;stroke-width:0.625;stroke-linejoin:round"
         d="M 8.7185878,4.0337352 L -2.2072895,0.016013256 L 8.7185884,-4.0017078 C 6.97309,-1.6296469 6.9831476,1.6157441 8.7185878,4.0337352 z "
         transform="scale(-0.6,-0.6)" />
    </marker>
  </defs>
  <sodipodi:namedview
     id="base"
     pagecolor="#ffffff"
     bordercolor="#666666"
     borderopacity="1.0"
     gridtolerance="10000"
     guidetolerance="10"
     objecttolerance="10"
     inkscape:pageopacity="0.0"
     inkscape:pageshadow="2"
     inkscape:zoom="1"
     inkscape:cx="126.50004"
     inkscape:cy="176.50005"
     inkscape:document-units="px"
     inkscape:current-layer="layer1"
     inkscape:window-width="1024"
     inkscape:window-height="682"
     inkscape:window-x="-4"
     inkscape:window-y="-4" />
  <metadata
     id="metadata7">
    <rdf:RDF>
      <cc:Work
         rdf:about="">
        <dc:format>image/svg+xml</dc:format>
        <dc:type
           rdf:resource="http://purl.org/dc/dcmitype/StillImage" />
      </cc:Work>
    </rdf:RDF>
  </metadata>
  <g
     inkscape:label="Layer 1"
     inkscape:groupmode="layer"
     id="layer1"
     transform="translate(142.0315,-18.75188)">
    <rect
       style="color:black;fill:white;fill-opacity:1;fill-rule:evenodd;stroke:black;stroke-width:8;stroke-linecap:round;stroke-linejoin:round;marker:none;marker-start:none;marker-mid:none;marker-end:none;stroke-miterlimit:4;stroke-dasharray:none;stroke-dashoffset:0;stroke-opacity:1;visibility:visible;display:inline;overflow:visible"
       id="Closed flask"
       width="249.00008"
       height="349.00009"
       x="-138.03154"
       y="22.751881"
       ry="53.325626"
       rx="53.325626" />
    <path
       style="color:black;fill:#80e5ff;fill-opacity:1;fill-rule:evenodd;stroke:none;stroke-width:12;stroke-linecap:round;stroke-linejoin:round;marker:none;stroke-miterlimit:4;stroke-dasharray:none;stroke-dashoffset:0;stroke-opacity:1;visibility:visible;display:inline;overflow:visible"
       d="M -142.21875,8.96875 C -144.88772,8.96875 -147.5066,9.175141 -150.0625,9.5625 C -172.19012,13.328779 -189.4192,30.16609 -192.9375,52.4375 C -193.19421,54.131358 -193.38007,55.879379 -193.46875,57.625 C -193.46928,57.63538 -193.46823,57.645868 -193.46875,57.65625 C -193.51182,58.524208 -193.53125,59.402055 -193.53125,60.28125 L -193.53125,160.78125 L -193.53125,302.65625 C -193.53125,331.12524 -170.68774,353.96873 -142.21875,353.96875 L 0.15625,353.96875 C 28.62524,353.96875 51.46875,331.12525 51.46875,302.65625 L 51.46875,60.28125 C 51.46875,59.381057 51.45139,58.5134 51.40625,57.625 C 51.36268,56.757258 51.30435,55.886731 51.21875,55.03125 C 51.21772,55.021001 51.21979,55.010247 51.21875,55 C 51.13162,54.13442 51.00412,53.289465 50.875,52.4375 C 50.61523,50.723452 50.29832,49.058785 49.875,47.40625 C 49.66755,46.594424 49.43288,45.795461 49.1875,45 C 49.1846,44.990618 49.19041,44.97813 49.1875,44.96875 C 48.93872,44.163934 48.66157,43.380748 48.375,42.59375 C 48.08517,41.797801 47.79615,41.026643 47.46875,40.25 C 47.14913,39.490608 46.79201,38.739928 46.4375,38 C 46.43348,37.991617 46.44153,37.97713 46.4375,37.96875 C 46.08254,37.228924 45.70133,36.500578 45.3125,35.78125 C 45.30818,35.773262 45.31683,35.757985 45.3125,35.75 C 45.16957,35.485932 45.0224,35.229958 44.875,34.96875 C 44.36997,34.073777 43.83747,33.203848 43.28125,32.34375 C 43.105,32.071466 42.93125,31.799901 42.75,31.53125 C 42.29027,30.849106 41.80371,30.18927 41.3125,29.53125 C 40.56012,28.523368 39.76061,27.541915 38.9375,26.59375 C 38.68557,26.303792 38.44582,26.002886 38.1875,25.71875 C 37.64158,25.117739 37.07373,24.542992 36.5,23.96875 C 35.34131,22.810062 34.10944,21.699527 32.84375,20.65625 C 32.20432,20.129186 31.57137,19.620993 30.90625,19.125 C 30.63741,18.924309 30.36667,18.726738 30.09375,18.53125 C 29.29277,17.958053 28.45986,17.433435 27.625,16.90625 C 27.35898,16.738106 27.11309,16.538349 26.84375,16.375 C 26.836,16.370308 26.82025,16.379688 26.8125,16.375 C 26.55643,16.21988 26.29027,16.088237 26.03125,15.9375 C 23.44287,14.432764 20.72984,13.133272 17.875,12.09375 C 17.86273,12.089281 17.85603,12.06696 17.84375,12.0625 C 14.70689,10.923019 11.39458,10.076965 8,9.5625 C 5.44411,9.175141 2.82522,8.96875 0.15625,8.96875 L -142.21875,8.96875 z M -142.21875,12.96875 L 0.15625,12.96875 C 26.47843,12.96875 47.46875,33.95907 47.46875,60.28125 L 47.46875,160.78125 L -6.4375,160.78125 C -6.4375013,152.81947 -6.4375,137.53125 -6.4375,137.53125 C -6.3763,133.20361 -8.63703,129.18167 -12.375,127 C -16.11297,124.81832 -20.73078,124.81832 -24.46875,127 C -28.206719,129.18167 -30.4987,133.20362 -30.4375,137.53125 C -30.437499,137.53124 -30.43749,170.06779 -30.4375,195.1875 C -30.4375,197.14176 -30.559399,198.93176 -30.84375,200.625 L -111.1875,200.625 C -111.47185,198.93176 -111.625,197.14176 -111.625,195.1875 C -111.625,165.05809 -111.625,137.53125 -111.625,137.53125 C -111.58271,134.28898 -112.82924,131.19612 -115.125,128.90625 C -117.42076,126.61638 -120.57036,125.32439 -123.8125,125.375 C -130.4276,125.47845 -135.71128,130.9159 -135.625,137.53125 C -135.625,137.53125 -135.625,153.46322 -135.625,160.78125 L -189.53125,160.78125 L -189.53125,60.28125 C -189.53125,33.959071 -168.54093,12.96875 -142.21875,12.96875 z M -123.75,129.4375 C -121.5904,129.40382 -119.49894,130.25694 -117.96875,131.78125 C -116.43856,133.30555 -115.59965,135.37153 -115.625,137.53125 C -115.625,137.53125 -115.625,165.05809 -115.625,195.1875 C -115.625,197.10859 -115.44776,198.90279 -115.1875,200.625 L -122.5,200.625 L -122.5,160.78125 L -131.625,160.78125 C -131.625,153.46322 -131.625,137.53125 -131.625,137.53125 C -131.67673,133.12506 -128.15595,129.50647 -123.75,129.4375 z M -18.4375,129.4375 C -17.04487,129.4375 -15.65224,129.80402 -14.40625,130.53125 C -11.91427,131.9857 -10.3967,134.64615 -10.4375,137.53125 C -10.4375,137.53125 -10.437501,152.81947 -10.4375,160.78125 L -20.90625,160.78125 L -20.90625,200.625 L -26.84375,200.625 C -26.583493,198.90279 -26.4375,197.10859 -26.4375,195.1875 C -26.437489,170.06779 -26.4375,137.53124 -26.4375,137.53125 C -26.478299,134.64616 -24.96073,131.98569 -22.46875,130.53125 C -21.22276,129.80403 -19.83013,129.4375 -18.4375,129.4375 z "
       transform="translate(57.49055,15.76728)"
       id="Helium"
       sodipodi:nodetypes="csssscccccccssssssssssssssssssssssssssssssccccccccssssccscssccccccscscccccccscccccsssc" />
    <path
       style="fill:none;fill-opacity:0.75;fill-rule:evenodd;stroke:black;stroke-width:16;stroke-linecap:round;stroke-linejoin:miter;stroke-miterlimit:4;stroke-dasharray:none;stroke-opacity:1"
       d="M -66.124975,153.30981 C -66.124975,153.30981 -66.124975,180.82974 -66.124975,210.95914 C -66.124975,239.24392 -39.822465,253.47552 -13.519955,253.47552 C 12.782555,253.47552 39.085055,239.24392 39.085055,210.95914 C 39.085055,185.83942 39.085045,153.30981 39.085045,153.30981"
       id="Inner recipient"
       sodipodi:nodetypes="csssc" />
    <path
       style="color:black;fill:black;fill-opacity:1;fill-rule:evenodd;stroke:none;stroke-width:4.75206375;stroke-linecap:round;stroke-linejoin:round;marker:none;stroke-miterlimit:4;stroke-dasharray:none;stroke-dashoffset:0;stroke-opacity:1;visibility:visible;display:inline;overflow:visible"
       d="M -65.9782,128.9987 C -78.86485,128.9987 -89.3532,139.3451 -89.3532,152.0612 C -89.37723,152.78616 -89.01701,153.47295 -88.38445,153.84245 C -87.7519,154.21195 -86.95451,154.21195 -86.32195,153.84245 C -85.6894,153.47295 -85.32918,152.78616 -85.3532,152.0612 C -85.35321,141.49498 -76.68613,132.96745 -65.9782,132.96745 C -55.27026,132.96745 -46.63445,141.49498 -46.63445,152.0612 C -46.64157,152.27596 -46.60034,152.4862 -46.5407,152.6862 C -48.89451,152.3776 -51.20021,151.53051 -53.19695,150.0612 L -44.6032,173.3737 L -36.00945,150.0612 C -38.035984,151.51569 -40.345689,152.3703 -42.69695,152.6862 C -42.63731,152.4862 -42.59608,152.27596 -42.6032,152.0612 C -42.6032,139.34511 -53.09155,128.9987 -65.9782,128.9987 z "
       id="Left arrow in" />
    <path
       style="color:black;fill:black;fill-opacity:1;fill-rule:evenodd;stroke:none;stroke-width:4.75206375;stroke-linecap:round;stroke-linejoin:round;marker:none;stroke-miterlimit:4;stroke-dasharray:none;stroke-dashoffset:0;stroke-opacity:1;visibility:visible;display:inline;overflow:visible"
       d="M 38.614419,128.9987 C 51.501069,128.9987 61.989419,139.3451 61.989419,152.0612 C 62.013449,152.78616 61.653229,153.47295 61.020669,153.84245 C 60.388119,154.21195 59.590729,154.21195 58.958169,153.84245 C 58.325619,153.47295 57.965399,152.78616 57.989419,152.0612 C 57.989429,141.49498 49.322349,132.96745 38.614419,132.96745 C 27.906479,132.96745 19.270669,141.49498 19.270669,152.0612 C 19.277789,152.27596 19.236559,152.4862 19.176919,152.6862 C 21.530729,152.3776 23.836429,151.53051 25.833169,150.0612 L 17.239419,173.3737 L 8.645669,150.0612 C 10.672203,151.51569 12.981908,152.3703 15.333169,152.6862 C 15.273529,152.4862 15.232299,152.27596 15.239419,152.0612 C 15.239419,139.34511 25.727769,128.9987 38.614419,128.9987 z "
       id="Right arrow in" />
  </g>
</svg>
